<svg width="25" height="26" viewBox="0 0 25 26" fill="none" xmlns="http://www.w3.org/2000/svg">
    <path d="M17.0127 22.6091C17.0591 23.8241 16.3003 24.9714 15.0855 25.3646C13.9329 25.7384 12.7153 25.3247 12.0169 24.4195C11.9389 24.2915 11.8571 24.1645 11.7708 24.0411C11.6918 23.8955 11.625 23.7397 11.5711 23.5765C11.0946 22.113 11.8962 20.5418 13.3617 20.067C14.8273 19.5912 16.4007 20.3916 16.8762 21.8551C16.957 22.1055 17.0016 22.3587 17.0118 22.6091H17.0127Z" fill="#F35874"/>
    <path d="M17.0126 3.2085C17.0005 3.34669 16.9931 3.48766 16.9922 3.62864C16.9718 3.80114 16.9327 3.97458 16.877 4.14709C16.4099 5.58279 14.8895 6.37947 13.449 5.96212C13.4434 5.96026 13.436 5.95748 13.4295 5.95655C13.3784 5.93893 13.3282 5.92224 13.2753 5.90554C13.2679 5.90276 13.2604 5.89998 13.253 5.89812C11.8571 5.3806 11.1066 3.85215 11.571 2.42573C11.6425 2.20778 11.7363 2.00374 11.8533 1.81732C11.8552 1.81546 11.8561 1.81268 11.858 1.8099C11.8868 1.77002 11.9119 1.72921 11.9369 1.68933C12.6224 0.709934 13.8911 0.249915 15.0864 0.636664C16.2399 1.01043 16.982 2.06402 17.0135 3.20757L17.0126 3.2085Z" fill="#66D9EF"/>
    <path d="M4.42914 4.74618C5.66533 5.6421 5.94674 7.35882 5.07278 8.60161C5.06349 8.61367 5.05606 8.62572 5.0477 8.63778C5.04027 8.64798 5.03284 8.65819 5.02541 8.66746C4.11337 9.88706 2.38773 10.1505 1.15062 9.25361C0.963006 9.11635 0.796757 8.96146 0.653728 8.79174C-0.153367 7.83646 -0.236027 6.42024 0.533916 5.36386C1.24721 4.38354 2.47689 4.00421 3.57747 4.32789C3.71214 4.38447 3.84867 4.43641 3.98984 4.48556C4.14216 4.55698 4.28983 4.64323 4.43007 4.74618H4.42914Z" fill="#0BCF7D"/>
    <path d="M5.04737 17.363C5.95291 18.6086 5.67707 20.3494 4.42974 21.2546C4.21334 21.4114 3.98208 21.5338 3.74153 21.6201C3.73689 21.6219 3.73131 21.6247 3.72667 21.6256C2.59079 22.0309 1.27753 21.6627 0.53266 20.6379C-0.182487 19.6557 -0.160196 18.3619 0.49551 17.4168C0.586528 17.3129 0.674761 17.2054 0.756492 17.0931L0.765777 17.0839C0.881872 16.9614 1.01097 16.8483 1.15122 16.7472C2.39761 15.8429 4.1409 16.1184 5.0483 17.363H5.04737Z" fill="#9747FF"/>
    <path d="M21.9214 10.2813C21.7198 10.234 21.509 10.2099 21.2926 10.2099C19.7509 10.2099 18.5035 11.4574 18.5035 12.9951H18.5017C18.5017 9.72673 16.3869 6.95178 13.4492 5.95848C14.8897 6.37583 16.4101 5.57822 16.8773 4.14345C16.9321 3.97094 16.9711 3.79751 16.9924 3.625C16.9748 4.36418 17.0807 5.1182 17.3222 5.86017C18.0457 8.08699 19.8205 9.68314 21.9205 10.2804L21.9214 10.2813Z" fill="#5B5B5B"/>
    <path d="M21.292 15.7803C21.4796 15.7803 21.6635 15.7608 21.8428 15.7256C21.1248 15.9371 20.432 16.2728 19.7939 16.7365C17.8593 18.1407 16.8878 20.3805 17.0132 22.6045H17.0114C17.0011 22.3541 16.9566 22.1009 16.8758 21.8505C16.3993 20.387 14.8269 19.5866 13.3613 20.0624V20.0605C16.3445 19.095 18.5011 16.2969 18.5011 12.9961H18.503C18.503 14.5357 19.7503 15.7812 21.292 15.7812V15.7803Z" fill="#5B5B5B"/>
    <path d="M13.3633 20.0612V20.0631C11.8977 20.5389 11.0962 22.1091 11.5727 23.5726C11.6265 23.7368 11.6934 23.8916 11.7724 24.0373C11.3526 23.44 10.8287 22.8983 10.2055 22.4457C8.26721 21.0406 5.82643 20.8097 3.74414 21.6203C3.98469 21.5341 4.21595 21.4116 4.43235 21.2549C5.67968 20.3506 5.95645 18.6098 5.04998 17.3633C6.40226 19.2173 8.59321 20.423 11.0665 20.423C11.868 20.423 12.6398 20.2959 13.3633 20.0612Z" fill="#5B5B5B"/>
    <path d="M11.8541 1.8125C11.738 1.99892 11.6432 2.20296 11.5717 2.42091C11.1073 3.84734 11.8587 5.37671 13.2537 5.89331C12.5609 5.68185 11.8271 5.56684 11.0646 5.56684C8.60618 5.56684 6.4273 6.75769 5.0741 8.59406C5.94899 7.35127 5.66665 5.63455 4.43047 4.73863C4.29022 4.63568 4.14255 4.54942 3.99023 4.47801C4.68402 4.71822 5.42796 4.84806 6.20254 4.84806C8.55881 4.84806 10.6402 3.64052 11.855 1.81343L11.8541 1.8125Z" fill="#5B5B5B"/>
    <path d="M5.02588 8.65811C4.14542 9.87771 3.62717 11.3756 3.62717 12.9921C3.62717 14.6087 4.15377 16.1334 5.04817 17.3586C4.14077 16.1139 2.39749 15.8385 1.15109 16.7427C1.01085 16.8438 0.882677 16.957 0.765653 17.0794C1.20774 16.4951 1.5616 15.8292 1.80029 15.0946C2.5303 12.853 2.02134 10.5028 0.652344 8.78239L0.6542 8.78053C0.79723 8.95026 0.963479 9.10514 1.15109 9.2424C2.3882 10.1393 4.11384 9.87585 5.02588 8.65625V8.65811Z" fill="#5B5B5B"/>
    <path d="M18.5006 12.996C19.6244 12.241 20.4966 11.398 20.1585 10.7516L20.4613 10.3361C17.0118 11.654 15.224 11.321 13.1398 9.91406C12.9894 10.7506 14.7819 12.1631 14.7828 12.996C14.7828 13.8289 12.9903 15.2423 13.1398 16.0779C15.224 14.671 17.0118 14.338 20.4613 15.6559L20.1585 15.2404C20.4966 14.5931 19.6244 13.75 18.5006 12.996Z" fill="#5B5B5B"/>
    <path d="M22.1288 10.3428C23.2619 10.6971 24.081 11.7526 24.081 13C24.081 14.2474 23.2888 15.2658 22.1882 15.6377C22.0721 15.6646 21.9569 15.6961 21.8418 15.7304C21.6625 15.7666 21.4796 15.7851 21.291 15.7851C19.7493 15.7851 18.502 14.5396 18.502 13C18.502 11.4604 19.7493 10.2148 21.291 10.2148C21.5074 10.2148 21.7183 10.239 21.9198 10.2863C21.9867 10.3057 22.0545 10.3234 22.1213 10.34C22.1241 10.3419 22.1269 10.3419 22.1288 10.3428Z" fill="#FD971F"/>
    <path d="M11.0634 16.7141C13.1178 16.7141 14.7831 15.0511 14.7831 12.9996C14.7831 10.9482 13.1178 9.28516 11.0634 9.28516C9.00911 9.28516 7.34375 10.9482 7.34375 12.9996C7.34375 15.0511 9.00911 16.7141 11.0634 16.7141Z" fill="#4B81FF"/>
</svg>